<svg xmlns="http://www.w3.org/2000/svg" viewBox="0 0 744 1040" role="img" aria-labelledby="title desc">
  <title id="title">The High Priestess - Neo Tarot</title>
  <desc id="desc">A premium Neo styled tarot card for The High Priestess.</desc>

  <defs>
    <linearGradient id="card-bg-card-2" x1="0" y1="0" x2="744" y2="1040" gradientUnits="userSpaceOnUse">
      <stop offset="0" stop-color="#02070c"/>
      <stop offset="0.42" stop-color="#0a1b23"/>
      <stop offset="1" stop-color="#090713"/>
    </linearGradient>
    <linearGradient id="scene-sky-card-2" x1="0" y1="130" x2="0" y2="790" gradientUnits="userSpaceOnUse">
      <stop offset="0" stop-color="#e9d79f"/>
      <stop offset="0.14" stop-color="#00d9ff"/>
      <stop offset="0.45" stop-color="#123443"/>
      <stop offset="1" stop-color="#071018"/>
    </linearGradient>
    <radialGradient id="scene-aura-card-2" cx="50%" cy="33%" r="62%">
      <stop offset="0" stop-color="#00e599" stop-opacity="0.54"/>
      <stop offset="0.36" stop-color="#00d9ff" stop-opacity="0.2"/>
      <stop offset="1" stop-color="#03070c" stop-opacity="0"/>
    </radialGradient>
    <radialGradient id="orb-card-2" cx="50%" cy="35%" r="58%">
      <stop offset="0" stop-color="#fff8ce"/>
      <stop offset="0.35" stop-color="#00e599"/>
      <stop offset="1" stop-color="#00d9ff" stop-opacity="0.26"/>
    </radialGradient>
    <linearGradient id="gold-line" x1="68" y1="68" x2="676" y2="968" gradientUnits="userSpaceOnUse">
      <stop offset="0" stop-color="#fff0b9"/>
      <stop offset="0.28" stop-color="#c8953f"/>
      <stop offset="0.54" stop-color="#fff4bf"/>
      <stop offset="0.78" stop-color="#a87327"/>
      <stop offset="1" stop-color="#f9da83"/>
    </linearGradient>
    <linearGradient id="foil-card-2" x1="130" y1="140" x2="610" y2="780" gradientUnits="userSpaceOnUse">
      <stop offset="0" stop-color="#00e599" stop-opacity="0.92"/>
      <stop offset="0.42" stop-color="#00d9ff" stop-opacity="0.94"/>
      <stop offset="1" stop-color="#f4c76b" stop-opacity="0.86"/>
    </linearGradient>
    <filter id="soft-glow-card-2" x="-30%" y="-30%" width="160%" height="160%">
      <feGaussianBlur stdDeviation="7" result="blur"/>
      <feColorMatrix in="blur" type="matrix" values="0 0 0 0 0 0 0 0 0 0.9 0 0 0 0 0.68 0 0 0 .68 0"/>
      <feMerge><feMergeNode/><feMergeNode in="SourceGraphic"/></feMerge>
    </filter>
    <filter id="paper-card-2" x="0" y="0" width="100%" height="100%">
      <feTurbulence type="fractalNoise" baseFrequency="0.9" numOctaves="3" seed="19" result="noise"/>
      <feColorMatrix in="noise" type="saturate" values="0"/>
      <feComponentTransfer><feFuncA type="table" tableValues="0 0.08"/></feComponentTransfer>
      <feBlend mode="soft-light" in2="SourceGraphic"/>
    </filter>
    <clipPath id="scene-clip-card-2">
      <rect x="88" y="126" width="568" height="640" rx="28"/>
    </clipPath>
  </defs>

  <rect width="744" height="1040" rx="54" fill="#010307"/>
  <rect x="18" y="18" width="708" height="1004" rx="46" fill="url(#card-bg-card-2)"/>
  <rect x="18" y="18" width="708" height="1004" rx="46" fill="url(#scene-aura-card-2)" opacity="0.28"/>
  <rect x="44" y="44" width="656" height="952" rx="36" fill="none" stroke="url(#gold-line)" stroke-width="4"/>
  <rect x="62" y="62" width="620" height="916" rx="28" fill="none" stroke="#00e599" stroke-opacity="0.36" stroke-width="2"/>
  <path d="M110 92h166l22 22h148l22-22h166M110 948h166l22-22h148l22 22h166" stroke="url(#gold-line)" stroke-width="2.6" fill="none"/>
  <path d="M91 156V87h70M653 156V87h-70M91 884v69h70M653 884v69h-70" stroke="url(#gold-line)" stroke-width="3" fill="none"/>
  <g font-family="Inter, ui-sans-serif, system-ui, -apple-system, BlinkMacSystemFont, Segoe UI, sans-serif">
    <text x="112" y="118" font-size="30" font-weight="900" fill="#f8e2a4" letter-spacing="0">II</text>
    <text x="632" y="924" font-size="30" font-weight="900" text-anchor="end" fill="#f8e2a4" letter-spacing="0">II</text>
    <text x="372" y="96" font-size="22" font-weight="900" text-anchor="middle" fill="#f8e2a4" letter-spacing="7">NEO TAROT</text>
  </g>
  <circle cx="110" cy="110" r="12" fill="#00e599" opacity="0.72"/>
  <circle cx="634" cy="110" r="12" fill="#00d9ff" opacity="0.72"/>
  <circle cx="110" cy="930" r="12" fill="#00d9ff" opacity="0.72"/>
  <circle cx="634" cy="930" r="12" fill="#00e599" opacity="0.72"/>
  <linearGradient id="neo-shield-fill" x1="0" y1="0" x2="84" y2="124" gradientUnits="userSpaceOnUse">
    <stop offset="0" stop-color="#00e599"/>
    <stop offset="1" stop-color="#00a66a"/>
  </linearGradient>

  <g transform="translate(330 108) scale(1)" opacity="0.95">
    <path d="M0 12L42 0l42 12v48c0 31-20 52-42 64C20 112 0 91 0 60V12Z" fill="url(#neo-shield-fill)" stroke="#00e599" stroke-opacity="0.82" stroke-width="2"/>
    <path d="M42 18l23 8v31c0 16-9 29-23 38-14-9-23-22-23-38V26l23-8Z" fill="#07111c" stroke="#00d9ff" stroke-opacity="0.38" stroke-width="2"/>
    <path d="M30 76V35l24 47V41" fill="none" stroke="#00e599" stroke-width="8" stroke-linecap="round" stroke-linejoin="round"/>
  </g>

  <g clip-path="url(#scene-clip-card-2)" filter="url(#paper-card-2)">
    <rect x="88" y="126" width="568" height="640" rx="28" fill="url(#scene-sky-card-2)"/>
    <rect x="88" y="126" width="568" height="640" rx="28" fill="url(#scene-aura-card-2)"/>
    <path d="M88 126h568v640H88Z" fill="#000" opacity="0.08"/>
    <g><path d="M178 222L469 381" stroke="#00d9ff" stroke-opacity="0.18" stroke-width="1.4"/><path d="M275 275L566 434" stroke="#00d9ff" stroke-opacity="0.18" stroke-width="1.4"/><path d="M372 328L163 487" stroke="#00d9ff" stroke-opacity="0.18" stroke-width="1.4"/><path d="M469 381L260 540" stroke="#00d9ff" stroke-opacity="0.18" stroke-width="1.4"/><path d="M566 434L357 593" stroke="#00d9ff" stroke-opacity="0.18" stroke-width="1.4"/><path d="M163 487L454 216" stroke="#00d9ff" stroke-opacity="0.18" stroke-width="1.4"/><path d="M260 540L551 269" stroke="#00d9ff" stroke-opacity="0.18" stroke-width="1.4"/><path d="M357 593L148 322" stroke="#00d9ff" stroke-opacity="0.18" stroke-width="1.4"/><path d="M454 216L245 375" stroke="#00d9ff" stroke-opacity="0.18" stroke-width="1.4"/><path d="M551 269L342 428" stroke="#00d9ff" stroke-opacity="0.18" stroke-width="1.4"/><circle cx="178" cy="222" r="5" fill="#fff7cf" opacity="0.88"/><circle cx="275" cy="275" r="2" fill="#00d9ff" opacity="0.54"/><circle cx="372" cy="328" r="2" fill="#fff7cf" opacity="0.54"/><circle cx="469" cy="381" r="3" fill="#00d9ff" opacity="0.54"/><circle cx="566" cy="434" r="2" fill="#fff7cf" opacity="0.88"/><circle cx="163" cy="487" r="5" fill="#00d9ff" opacity="0.54"/><circle cx="260" cy="540" r="3" fill="#fff7cf" opacity="0.54"/><circle cx="357" cy="593" r="2" fill="#00d9ff" opacity="0.54"/><circle cx="454" cy="216" r="2" fill="#fff7cf" opacity="0.88"/><circle cx="551" cy="269" r="3" fill="#00d9ff" opacity="0.54"/><circle cx="148" cy="322" r="5" fill="#fff7cf" opacity="0.54"/><circle cx="245" cy="375" r="2" fill="#00d9ff" opacity="0.54"/><circle cx="342" cy="428" r="3" fill="#fff7cf" opacity="0.88"/><circle cx="439" cy="481" r="2" fill="#00d9ff" opacity="0.54"/><circle cx="536" cy="534" r="2" fill="#fff7cf" opacity="0.54"/><circle cx="133" cy="587" r="5" fill="#00d9ff" opacity="0.54"/><circle cx="230" cy="210" r="2" fill="#fff7cf" opacity="0.88"/><circle cx="327" cy="263" r="2" fill="#00d9ff" opacity="0.54"/><circle cx="424" cy="316" r="3" fill="#fff7cf" opacity="0.54"/><circle cx="521" cy="369" r="2" fill="#00d9ff" opacity="0.54"/></g>
  <path d="M88 710c74-92 132-104 212-34 74-90 132-120 220-18 42-42 82-44 136 12v96H88Z" fill="#06151c" opacity="0.88"/>
  <path d="M88 688c86-82 142-88 216-28 80-104 158-126 252-18 34-28 62-34 100-8" fill="none" stroke="#00d9ff" stroke-opacity="0.34" stroke-width="3"/>
  <path d="M88 764c132-62 252-72 360-30 74 28 142 28 208-10" fill="none" stroke="#00e599" stroke-opacity="0.34" stroke-width="4"/>
  <path d="M118 768c128-38 240-34 336 12 66 30 124 28 172-4" fill="none" stroke="#f8e2a4" stroke-opacity="0.16" stroke-width="2"/>
  <circle cx="496" cy="282" r="72" fill="#00e599" opacity="0.16"/><g><path d="M92 742V630h24v112Z" fill="#041018" opacity="0.76" stroke="#00d9ff" stroke-opacity="0.24"/><path d="M98 650h20M98 676h20" stroke="#00e599" stroke-opacity="0.32"/><path d="M140 742V599h32v143Z" fill="#041018" opacity="0.76" stroke="#00d9ff" stroke-opacity="0.24"/><path d="M146 619h20M146 645h20" stroke="#00e599" stroke-opacity="0.32"/><path d="M188 742V568h40v174Z" fill="#041018" opacity="0.76" stroke="#00d9ff" stroke-opacity="0.24"/><path d="M194 588h20M194 614h20" stroke="#00e599" stroke-opacity="0.32"/><path d="M236 742V537h24v205Z" fill="#041018" opacity="0.76" stroke="#00d9ff" stroke-opacity="0.24"/><path d="M242 557h20M242 583h20" stroke="#00e599" stroke-opacity="0.32"/><path d="M284 742V648h32v94Z" fill="#041018" opacity="0.76" stroke="#00d9ff" stroke-opacity="0.24"/><path d="M290 668h20M290 694h20" stroke="#00e599" stroke-opacity="0.32"/><path d="M332 742V617h40v125Z" fill="#041018" opacity="0.76" stroke="#00d9ff" stroke-opacity="0.24"/><path d="M338 637h20M338 663h20" stroke="#00e599" stroke-opacity="0.32"/><path d="M380 742V586h24v156Z" fill="#041018" opacity="0.76" stroke="#00d9ff" stroke-opacity="0.24"/><path d="M386 606h20M386 632h20" stroke="#00e599" stroke-opacity="0.32"/><path d="M428 742V555h32v187Z" fill="#041018" opacity="0.76" stroke="#00d9ff" stroke-opacity="0.24"/><path d="M434 575h20M434 601h20" stroke="#00e599" stroke-opacity="0.32"/><path d="M476 742V666h40v76Z" fill="#041018" opacity="0.76" stroke="#00d9ff" stroke-opacity="0.24"/><path d="M482 686h20M482 712h20" stroke="#00e599" stroke-opacity="0.32"/><path d="M524 742V635h24v107Z" fill="#041018" opacity="0.76" stroke="#00d9ff" stroke-opacity="0.24"/><path d="M530 655h20M530 681h20" stroke="#00e599" stroke-opacity="0.32"/><path d="M572 742V604h32v138Z" fill="#041018" opacity="0.76" stroke="#00d9ff" stroke-opacity="0.24"/><path d="M578 624h20M578 650h20" stroke="#00e599" stroke-opacity="0.32"/><path d="M620 742V573h40v169Z" fill="#041018" opacity="0.76" stroke="#00d9ff" stroke-opacity="0.24"/><path d="M626 593h20M626 619h20" stroke="#00e599" stroke-opacity="0.32"/><path d="M88 742h568" stroke="#00e599" stroke-opacity="0.24" stroke-width="3"/></g><path d="M214 728V266h70v462M460 728V266h70v462" fill="#07131c" stroke="url(#gold-line)" stroke-width="5"/>
  <g transform="translate(372 560) scale(1.08)" filter="url(#soft-glow-card-2)">
    <path d="M-72 174c18-130 28-208 72-250 44 42 54 120 72 250Z" fill="#07131c" stroke="url(#gold-line)" stroke-width="4"/>
    <path d="M-42 166c10-82 18-146 42-194 24 48 32 112 42 194Z" fill="#00e599" opacity="0.2"/>
    <circle cx="0" cy="-96" r="42" fill="#0d2027" stroke="#f8e2a4" stroke-width="5"/>
    <path d="M-62-10c-56 30-84 72-104 128M62-10c56 30 84 72 104 128" fill="none" stroke="#00d9ff" stroke-width="10" stroke-linecap="round"/>

  </g><path d="M268 312h208M278 682h188" stroke="#00d9ff" stroke-width="5"/>
  </g>
  <rect x="88" y="126" width="568" height="640" rx="28" fill="none" stroke="url(#gold-line)" stroke-width="4"/>
  <rect x="104" y="142" width="536" height="608" rx="20" fill="none" stroke="#00e599" stroke-opacity="0.28" stroke-width="2"/>

  <g font-family="Georgia, Times New Roman, serif">
    <path d="M126 792h492l38 42-38 42H126l-38-42 38-42Z" fill="#070b10" fill-opacity="0.91" stroke="url(#gold-line)" stroke-width="3"/>
    <path d="M150 808h444M150 860h444" stroke="#00e599" stroke-opacity="0.18" stroke-width="2"/>
    <text x="372" y="846" text-anchor="middle" font-size="32" font-weight="800" fill="#f8e2a4" letter-spacing="3">THE HIGH PRIESTESS</text>
  </g>
  <g font-family="Inter, ui-sans-serif, system-ui, -apple-system, BlinkMacSystemFont, Segoe UI, sans-serif">
    <text x="372" y="912" text-anchor="middle" font-size="15" font-weight="900" fill="#00e599" letter-spacing="4">ORACLE</text>
    <text x="372" y="944" text-anchor="middle" font-size="12" font-weight="800" fill="#8fa4b3" letter-spacing="3">SIGNAL ON NEO</text>
  </g>
  <text x="372" y="976" text-anchor="middle" font-family="Inter, ui-sans-serif, system-ui" font-size="11" font-weight="900" fill="#5a7485" letter-spacing="5">ORACLE VERIFIED READING</text>
</svg>
