<svg xmlns="http://www.w3.org/2000/svg" viewBox="0 0 744 1040" role="img" aria-labelledby="title desc">
  <title id="title">Strength - Neo Tarot</title>
  <desc id="desc">A premium Neo styled tarot card for Strength.</desc>

  <defs>
    <linearGradient id="card-bg-card-8" x1="0" y1="0" x2="744" y2="1040" gradientUnits="userSpaceOnUse">
      <stop offset="0" stop-color="#02070c"/>
      <stop offset="0.42" stop-color="#0a1b23"/>
      <stop offset="1" stop-color="#090713"/>
    </linearGradient>
    <linearGradient id="scene-sky-card-8" x1="0" y1="130" x2="0" y2="790" gradientUnits="userSpaceOnUse">
      <stop offset="0" stop-color="#e9d79f"/>
      <stop offset="0.14" stop-color="#00d9ff"/>
      <stop offset="0.45" stop-color="#123443"/>
      <stop offset="1" stop-color="#071018"/>
    </linearGradient>
    <radialGradient id="scene-aura-card-8" cx="50%" cy="33%" r="62%">
      <stop offset="0" stop-color="#00e599" stop-opacity="0.54"/>
      <stop offset="0.36" stop-color="#00d9ff" stop-opacity="0.2"/>
      <stop offset="1" stop-color="#03070c" stop-opacity="0"/>
    </radialGradient>
    <radialGradient id="orb-card-8" cx="50%" cy="35%" r="58%">
      <stop offset="0" stop-color="#fff8ce"/>
      <stop offset="0.35" stop-color="#00e599"/>
      <stop offset="1" stop-color="#00d9ff" stop-opacity="0.26"/>
    </radialGradient>
    <linearGradient id="gold-line" x1="68" y1="68" x2="676" y2="968" gradientUnits="userSpaceOnUse">
      <stop offset="0" stop-color="#fff0b9"/>
      <stop offset="0.28" stop-color="#c8953f"/>
      <stop offset="0.54" stop-color="#fff4bf"/>
      <stop offset="0.78" stop-color="#a87327"/>
      <stop offset="1" stop-color="#f9da83"/>
    </linearGradient>
    <linearGradient id="foil-card-8" x1="130" y1="140" x2="610" y2="780" gradientUnits="userSpaceOnUse">
      <stop offset="0" stop-color="#00e599" stop-opacity="0.92"/>
      <stop offset="0.42" stop-color="#00d9ff" stop-opacity="0.94"/>
      <stop offset="1" stop-color="#f4c76b" stop-opacity="0.86"/>
    </linearGradient>
    <filter id="soft-glow-card-8" x="-30%" y="-30%" width="160%" height="160%">
      <feGaussianBlur stdDeviation="7" result="blur"/>
      <feColorMatrix in="blur" type="matrix" values="0 0 0 0 0 0 0 0 0 0.9 0 0 0 0 0.68 0 0 0 .68 0"/>
      <feMerge><feMergeNode/><feMergeNode in="SourceGraphic"/></feMerge>
    </filter>
    <filter id="paper-card-8" x="0" y="0" width="100%" height="100%">
      <feTurbulence type="fractalNoise" baseFrequency="0.9" numOctaves="3" seed="25" result="noise"/>
      <feColorMatrix in="noise" type="saturate" values="0"/>
      <feComponentTransfer><feFuncA type="table" tableValues="0 0.08"/></feComponentTransfer>
      <feBlend mode="soft-light" in2="SourceGraphic"/>
    </filter>
    <clipPath id="scene-clip-card-8">
      <rect x="88" y="126" width="568" height="640" rx="28"/>
    </clipPath>
  </defs>

  <rect width="744" height="1040" rx="54" fill="#010307"/>
  <rect x="18" y="18" width="708" height="1004" rx="46" fill="url(#card-bg-card-8)"/>
  <rect x="18" y="18" width="708" height="1004" rx="46" fill="url(#scene-aura-card-8)" opacity="0.28"/>
  <rect x="44" y="44" width="656" height="952" rx="36" fill="none" stroke="url(#gold-line)" stroke-width="4"/>
  <rect x="62" y="62" width="620" height="916" rx="28" fill="none" stroke="#00e599" stroke-opacity="0.36" stroke-width="2"/>
  <path d="M110 92h166l22 22h148l22-22h166M110 948h166l22-22h148l22 22h166" stroke="url(#gold-line)" stroke-width="2.6" fill="none"/>
  <path d="M91 156V87h70M653 156V87h-70M91 884v69h70M653 884v69h-70" stroke="url(#gold-line)" stroke-width="3" fill="none"/>
  <g font-family="Inter, ui-sans-serif, system-ui, -apple-system, BlinkMacSystemFont, Segoe UI, sans-serif">
    <text x="112" y="118" font-size="30" font-weight="900" fill="#f8e2a4" letter-spacing="0">VIII</text>
    <text x="632" y="924" font-size="30" font-weight="900" text-anchor="end" fill="#f8e2a4" letter-spacing="0">VIII</text>
    <text x="372" y="96" font-size="22" font-weight="900" text-anchor="middle" fill="#f8e2a4" letter-spacing="7">NEO TAROT</text>
  </g>
  <circle cx="110" cy="110" r="12" fill="#00e599" opacity="0.72"/>
  <circle cx="634" cy="110" r="12" fill="#00d9ff" opacity="0.72"/>
  <circle cx="110" cy="930" r="12" fill="#00d9ff" opacity="0.72"/>
  <circle cx="634" cy="930" r="12" fill="#00e599" opacity="0.72"/>
  <linearGradient id="neo-shield-fill" x1="0" y1="0" x2="84" y2="124" gradientUnits="userSpaceOnUse">
    <stop offset="0" stop-color="#00e599"/>
    <stop offset="1" stop-color="#00a66a"/>
  </linearGradient>

  <g transform="translate(330 108) scale(1)" opacity="0.95">
    <path d="M0 12L42 0l42 12v48c0 31-20 52-42 64C20 112 0 91 0 60V12Z" fill="url(#neo-shield-fill)" stroke="#00e599" stroke-opacity="0.82" stroke-width="2"/>
    <path d="M42 18l23 8v31c0 16-9 29-23 38-14-9-23-22-23-38V26l23-8Z" fill="#07111c" stroke="#00d9ff" stroke-opacity="0.38" stroke-width="2"/>
    <path d="M30 76V35l24 47V41" fill="none" stroke="#00e599" stroke-width="8" stroke-linecap="round" stroke-linejoin="round"/>
  </g>

  <g clip-path="url(#scene-clip-card-8)" filter="url(#paper-card-8)">
    <rect x="88" y="126" width="568" height="640" rx="28" fill="url(#scene-sky-card-8)"/>
    <rect x="88" y="126" width="568" height="640" rx="28" fill="url(#scene-aura-card-8)"/>
    <path d="M88 126h568v640H88Z" fill="#000" opacity="0.08"/>
    <g><path d="M364 396L155 555" stroke="#00d9ff" stroke-opacity="0.18" stroke-width="1.4"/><path d="M461 449L252 178" stroke="#00d9ff" stroke-opacity="0.18" stroke-width="1.4"/><path d="M558 502L349 231" stroke="#00d9ff" stroke-opacity="0.18" stroke-width="1.4"/><path d="M155 555L446 284" stroke="#00d9ff" stroke-opacity="0.18" stroke-width="1.4"/><path d="M252 178L543 337" stroke="#00d9ff" stroke-opacity="0.18" stroke-width="1.4"/><path d="M349 231L140 390" stroke="#00d9ff" stroke-opacity="0.18" stroke-width="1.4"/><path d="M446 284L237 443" stroke="#00d9ff" stroke-opacity="0.18" stroke-width="1.4"/><path d="M543 337L334 496" stroke="#00d9ff" stroke-opacity="0.18" stroke-width="1.4"/><path d="M140 390L431 549" stroke="#00d9ff" stroke-opacity="0.18" stroke-width="1.4"/><path d="M237 443L528 172" stroke="#00d9ff" stroke-opacity="0.18" stroke-width="1.4"/><circle cx="364" cy="396" r="5" fill="#fff7cf" opacity="0.88"/><circle cx="461" cy="449" r="2" fill="#00d9ff" opacity="0.54"/><circle cx="558" cy="502" r="2" fill="#fff7cf" opacity="0.54"/><circle cx="155" cy="555" r="3" fill="#00d9ff" opacity="0.54"/><circle cx="252" cy="178" r="2" fill="#fff7cf" opacity="0.88"/><circle cx="349" cy="231" r="5" fill="#00d9ff" opacity="0.54"/><circle cx="446" cy="284" r="3" fill="#fff7cf" opacity="0.54"/><circle cx="543" cy="337" r="2" fill="#00d9ff" opacity="0.54"/><circle cx="140" cy="390" r="2" fill="#fff7cf" opacity="0.88"/><circle cx="237" cy="443" r="3" fill="#00d9ff" opacity="0.54"/><circle cx="334" cy="496" r="5" fill="#fff7cf" opacity="0.54"/><circle cx="431" cy="549" r="2" fill="#00d9ff" opacity="0.54"/><circle cx="528" cy="172" r="3" fill="#fff7cf" opacity="0.88"/><circle cx="125" cy="225" r="2" fill="#00d9ff" opacity="0.54"/><circle cx="222" cy="278" r="2" fill="#fff7cf" opacity="0.54"/><circle cx="319" cy="331" r="5" fill="#00d9ff" opacity="0.54"/><circle cx="416" cy="384" r="2" fill="#fff7cf" opacity="0.88"/><circle cx="513" cy="437" r="2" fill="#00d9ff" opacity="0.54"/><circle cx="610" cy="490" r="3" fill="#fff7cf" opacity="0.54"/><circle cx="207" cy="543" r="2" fill="#00d9ff" opacity="0.54"/></g>
  <path d="M88 710c74-92 132-104 212-34 74-90 132-120 220-18 42-42 82-44 136 12v96H88Z" fill="#06151c" opacity="0.88"/>
  <path d="M88 688c86-82 142-88 216-28 80-104 158-126 252-18 34-28 62-34 100-8" fill="none" stroke="#00d9ff" stroke-opacity="0.34" stroke-width="3"/>
  <path d="M88 764c132-62 252-72 360-30 74 28 142 28 208-10" fill="none" stroke="#00e599" stroke-opacity="0.34" stroke-width="4"/>
  <path d="M118 768c128-38 240-34 336 12 66 30 124 28 172-4" fill="none" stroke="#f8e2a4" stroke-opacity="0.16" stroke-width="2"/>
  <circle cx="454" cy="300" r="72" fill="#00e599" opacity="0.16"/><g><path d="M92 742V658h24v84Z" fill="#041018" opacity="0.76" stroke="#00d9ff" stroke-opacity="0.24"/><path d="M98 678h20M98 704h20" stroke="#00e599" stroke-opacity="0.32"/><path d="M140 742V627h32v115Z" fill="#041018" opacity="0.76" stroke="#00d9ff" stroke-opacity="0.24"/><path d="M146 647h20M146 673h20" stroke="#00e599" stroke-opacity="0.32"/><path d="M188 742V596h40v146Z" fill="#041018" opacity="0.76" stroke="#00d9ff" stroke-opacity="0.24"/><path d="M194 616h20M194 642h20" stroke="#00e599" stroke-opacity="0.32"/><path d="M236 742V565h24v177Z" fill="#041018" opacity="0.76" stroke="#00d9ff" stroke-opacity="0.24"/><path d="M242 585h20M242 611h20" stroke="#00e599" stroke-opacity="0.32"/><path d="M284 742V534h32v208Z" fill="#041018" opacity="0.76" stroke="#00d9ff" stroke-opacity="0.24"/><path d="M290 554h20M290 580h20" stroke="#00e599" stroke-opacity="0.32"/><path d="M332 742V645h40v97Z" fill="#041018" opacity="0.76" stroke="#00d9ff" stroke-opacity="0.24"/><path d="M338 665h20M338 691h20" stroke="#00e599" stroke-opacity="0.32"/><path d="M380 742V614h24v128Z" fill="#041018" opacity="0.76" stroke="#00d9ff" stroke-opacity="0.24"/><path d="M386 634h20M386 660h20" stroke="#00e599" stroke-opacity="0.32"/><path d="M428 742V583h32v159Z" fill="#041018" opacity="0.76" stroke="#00d9ff" stroke-opacity="0.24"/><path d="M434 603h20M434 629h20" stroke="#00e599" stroke-opacity="0.32"/><path d="M476 742V552h40v190Z" fill="#041018" opacity="0.76" stroke="#00d9ff" stroke-opacity="0.24"/><path d="M482 572h20M482 598h20" stroke="#00e599" stroke-opacity="0.32"/><path d="M524 742V663h24v79Z" fill="#041018" opacity="0.76" stroke="#00d9ff" stroke-opacity="0.24"/><path d="M530 683h20M530 709h20" stroke="#00e599" stroke-opacity="0.32"/><path d="M572 742V632h32v110Z" fill="#041018" opacity="0.76" stroke="#00d9ff" stroke-opacity="0.24"/><path d="M578 652h20M578 678h20" stroke="#00e599" stroke-opacity="0.32"/><path d="M620 742V601h40v141Z" fill="#041018" opacity="0.76" stroke="#00d9ff" stroke-opacity="0.24"/><path d="M626 621h20M626 647h20" stroke="#00e599" stroke-opacity="0.32"/><path d="M88 742h568" stroke="#00e599" stroke-opacity="0.24" stroke-width="3"/></g>
  <g transform="translate(372 560) scale(1.08)" filter="url(#soft-glow-card-8)">
    <path d="M-72 174c18-130 28-208 72-250 44 42 54 120 72 250Z" fill="#07131c" stroke="url(#gold-line)" stroke-width="4"/>
    <path d="M-42 166c10-82 18-146 42-194 24 48 32 112 42 194Z" fill="#00e599" opacity="0.2"/>
    <circle cx="0" cy="-96" r="42" fill="#0d2027" stroke="#f8e2a4" stroke-width="5"/>
    <path d="M-62-10c-56 30-84 72-104 128M62-10c56 30 84 72 104 128" fill="none" stroke="#00d9ff" stroke-width="10" stroke-linecap="round"/>

  </g><path d="M226 548c92-128 200-128 292 0-92 128-200 128-292 0Z" fill="none" stroke="url(#gold-line)" stroke-width="8"/><path d="M292 660c54 50 106 50 160 0" stroke="#00d9ff" stroke-width="8" fill="none"/>
  </g>
  <rect x="88" y="126" width="568" height="640" rx="28" fill="none" stroke="url(#gold-line)" stroke-width="4"/>
  <rect x="104" y="142" width="536" height="608" rx="20" fill="none" stroke="#00e599" stroke-opacity="0.28" stroke-width="2"/>

  <g font-family="Georgia, Times New Roman, serif">
    <path d="M126 792h492l38 42-38 42H126l-38-42 38-42Z" fill="#070b10" fill-opacity="0.91" stroke="url(#gold-line)" stroke-width="3"/>
    <path d="M150 808h444M150 860h444" stroke="#00e599" stroke-opacity="0.18" stroke-width="2"/>
    <text x="372" y="846" text-anchor="middle" font-size="38" font-weight="800" fill="#f8e2a4" letter-spacing="3">STRENGTH</text>
  </g>
  <g font-family="Inter, ui-sans-serif, system-ui, -apple-system, BlinkMacSystemFont, Segoe UI, sans-serif">
    <text x="372" y="912" text-anchor="middle" font-size="15" font-weight="900" fill="#00e599" letter-spacing="4">COURAGE</text>
    <text x="372" y="944" text-anchor="middle" font-size="12" font-weight="800" fill="#8fa4b3" letter-spacing="3">GRACE ON NEO</text>
  </g>
  <text x="372" y="976" text-anchor="middle" font-family="Inter, ui-sans-serif, system-ui" font-size="11" font-weight="900" fill="#5a7485" letter-spacing="5">ORACLE VERIFIED READING</text>
</svg>
