<svg xmlns="http://www.w3.org/2000/svg" viewBox="0 0 744 1040" role="img" aria-labelledby="title desc">
  <title id="title">Nine of Swords - Neo Tarot</title>
  <desc id="desc">A premium Neo styled tarot card for Nine of Swords.</desc>

  <defs>
    <linearGradient id="card-bg-card-58" x1="0" y1="0" x2="744" y2="1040" gradientUnits="userSpaceOnUse">
      <stop offset="0" stop-color="#02070c"/>
      <stop offset="0.42" stop-color="#0a1b23"/>
      <stop offset="1" stop-color="#090713"/>
    </linearGradient>
    <linearGradient id="scene-sky-card-58" x1="0" y1="130" x2="0" y2="790" gradientUnits="userSpaceOnUse">
      <stop offset="0" stop-color="#e9d79f"/>
      <stop offset="0.14" stop-color="#00d9ff"/>
      <stop offset="0.45" stop-color="#123443"/>
      <stop offset="1" stop-color="#071018"/>
    </linearGradient>
    <radialGradient id="scene-aura-card-58" cx="50%" cy="33%" r="62%">
      <stop offset="0" stop-color="#d6efff" stop-opacity="0.54"/>
      <stop offset="0.36" stop-color="#00d9ff" stop-opacity="0.2"/>
      <stop offset="1" stop-color="#03070c" stop-opacity="0"/>
    </radialGradient>
    <radialGradient id="orb-card-58" cx="50%" cy="35%" r="58%">
      <stop offset="0" stop-color="#fff8ce"/>
      <stop offset="0.35" stop-color="#d6efff"/>
      <stop offset="1" stop-color="#00d9ff" stop-opacity="0.26"/>
    </radialGradient>
    <linearGradient id="gold-line" x1="68" y1="68" x2="676" y2="968" gradientUnits="userSpaceOnUse">
      <stop offset="0" stop-color="#fff0b9"/>
      <stop offset="0.28" stop-color="#c8953f"/>
      <stop offset="0.54" stop-color="#fff4bf"/>
      <stop offset="0.78" stop-color="#a87327"/>
      <stop offset="1" stop-color="#f9da83"/>
    </linearGradient>
    <linearGradient id="foil-card-58" x1="130" y1="140" x2="610" y2="780" gradientUnits="userSpaceOnUse">
      <stop offset="0" stop-color="#d6efff" stop-opacity="0.92"/>
      <stop offset="0.42" stop-color="#00d9ff" stop-opacity="0.94"/>
      <stop offset="1" stop-color="#f4c76b" stop-opacity="0.86"/>
    </linearGradient>
    <filter id="soft-glow-card-58" x="-30%" y="-30%" width="160%" height="160%">
      <feGaussianBlur stdDeviation="7" result="blur"/>
      <feColorMatrix in="blur" type="matrix" values="0 0 0 0 0 0 0 0 0 0.9 0 0 0 0 0.68 0 0 0 .68 0"/>
      <feMerge><feMergeNode/><feMergeNode in="SourceGraphic"/></feMerge>
    </filter>
    <filter id="paper-card-58" x="0" y="0" width="100%" height="100%">
      <feTurbulence type="fractalNoise" baseFrequency="0.9" numOctaves="3" seed="75" result="noise"/>
      <feColorMatrix in="noise" type="saturate" values="0"/>
      <feComponentTransfer><feFuncA type="table" tableValues="0 0.08"/></feComponentTransfer>
      <feBlend mode="soft-light" in2="SourceGraphic"/>
    </filter>
    <clipPath id="scene-clip-card-58">
      <rect x="88" y="126" width="568" height="640" rx="28"/>
    </clipPath>
  </defs>

  <rect width="744" height="1040" rx="54" fill="#010307"/>
  <rect x="18" y="18" width="708" height="1004" rx="46" fill="url(#card-bg-card-58)"/>
  <rect x="18" y="18" width="708" height="1004" rx="46" fill="url(#scene-aura-card-58)" opacity="0.28"/>
  <rect x="44" y="44" width="656" height="952" rx="36" fill="none" stroke="url(#gold-line)" stroke-width="4"/>
  <rect x="62" y="62" width="620" height="916" rx="28" fill="none" stroke="#d6efff" stroke-opacity="0.36" stroke-width="2"/>
  <path d="M110 92h166l22 22h148l22-22h166M110 948h166l22-22h148l22 22h166" stroke="url(#gold-line)" stroke-width="2.6" fill="none"/>
  <path d="M91 156V87h70M653 156V87h-70M91 884v69h70M653 884v69h-70" stroke="url(#gold-line)" stroke-width="3" fill="none"/>
  <g font-family="Inter, ui-sans-serif, system-ui, -apple-system, BlinkMacSystemFont, Segoe UI, sans-serif">
    <text x="112" y="118" font-size="30" font-weight="900" fill="#f8e2a4" letter-spacing="0">IX</text>
    <text x="632" y="924" font-size="30" font-weight="900" text-anchor="end" fill="#f8e2a4" letter-spacing="0">IX</text>
    <text x="372" y="96" font-size="22" font-weight="900" text-anchor="middle" fill="#f8e2a4" letter-spacing="7">NEO TAROT</text>
  </g>
  <circle cx="110" cy="110" r="12" fill="#d6efff" opacity="0.72"/>
  <circle cx="634" cy="110" r="12" fill="#00d9ff" opacity="0.72"/>
  <circle cx="110" cy="930" r="12" fill="#00d9ff" opacity="0.72"/>
  <circle cx="634" cy="930" r="12" fill="#d6efff" opacity="0.72"/>
  <linearGradient id="neo-shield-fill" x1="0" y1="0" x2="84" y2="124" gradientUnits="userSpaceOnUse">
    <stop offset="0" stop-color="#00e599"/>
    <stop offset="1" stop-color="#00a66a"/>
  </linearGradient>

  <g transform="translate(330 108) scale(1)" opacity="0.95">
    <path d="M0 12L42 0l42 12v48c0 31-20 52-42 64C20 112 0 91 0 60V12Z" fill="url(#neo-shield-fill)" stroke="#00e599" stroke-opacity="0.82" stroke-width="2"/>
    <path d="M42 18l23 8v31c0 16-9 29-23 38-14-9-23-22-23-38V26l23-8Z" fill="#07111c" stroke="#00d9ff" stroke-opacity="0.38" stroke-width="2"/>
    <path d="M30 76V35l24 47V41" fill="none" stroke="#00e599" stroke-width="8" stroke-linecap="round" stroke-linejoin="round"/>
  </g>

  <g clip-path="url(#scene-clip-card-58)" filter="url(#paper-card-58)">
    <rect x="88" y="126" width="568" height="640" rx="28" fill="url(#scene-sky-card-58)"/>
    <rect x="88" y="126" width="568" height="640" rx="28" fill="url(#scene-aura-card-58)"/>
    <path d="M88 126h568v640H88Z" fill="#000" opacity="0.08"/>
    <g><path d="M414 556L205 285" stroke="#00d9ff" stroke-opacity="0.18" stroke-width="1.4"/><path d="M511 179L302 338" stroke="#00d9ff" stroke-opacity="0.18" stroke-width="1.4"/><path d="M608 232L399 391" stroke="#00d9ff" stroke-opacity="0.18" stroke-width="1.4"/><path d="M205 285L496 444" stroke="#00d9ff" stroke-opacity="0.18" stroke-width="1.4"/><path d="M302 338L593 497" stroke="#00d9ff" stroke-opacity="0.18" stroke-width="1.4"/><path d="M399 391L190 550" stroke="#00d9ff" stroke-opacity="0.18" stroke-width="1.4"/><path d="M496 444L287 173" stroke="#00d9ff" stroke-opacity="0.18" stroke-width="1.4"/><path d="M593 497L384 226" stroke="#00d9ff" stroke-opacity="0.18" stroke-width="1.4"/><path d="M190 550L481 279" stroke="#00d9ff" stroke-opacity="0.18" stroke-width="1.4"/><path d="M287 173L578 332" stroke="#00d9ff" stroke-opacity="0.18" stroke-width="1.4"/><circle cx="414" cy="556" r="5" fill="#fff7cf" opacity="0.88"/><circle cx="511" cy="179" r="2" fill="#00d9ff" opacity="0.54"/><circle cx="608" cy="232" r="2" fill="#fff7cf" opacity="0.54"/><circle cx="205" cy="285" r="3" fill="#00d9ff" opacity="0.54"/><circle cx="302" cy="338" r="2" fill="#fff7cf" opacity="0.88"/><circle cx="399" cy="391" r="5" fill="#00d9ff" opacity="0.54"/><circle cx="496" cy="444" r="3" fill="#fff7cf" opacity="0.54"/><circle cx="593" cy="497" r="2" fill="#00d9ff" opacity="0.54"/><circle cx="190" cy="550" r="2" fill="#fff7cf" opacity="0.88"/><circle cx="287" cy="173" r="3" fill="#00d9ff" opacity="0.54"/><circle cx="384" cy="226" r="5" fill="#fff7cf" opacity="0.54"/><circle cx="481" cy="279" r="2" fill="#00d9ff" opacity="0.54"/><circle cx="578" cy="332" r="3" fill="#fff7cf" opacity="0.88"/><circle cx="175" cy="385" r="2" fill="#00d9ff" opacity="0.54"/><circle cx="272" cy="438" r="2" fill="#fff7cf" opacity="0.54"/><circle cx="369" cy="491" r="5" fill="#00d9ff" opacity="0.54"/><circle cx="466" cy="544" r="2" fill="#fff7cf" opacity="0.88"/><circle cx="563" cy="167" r="2" fill="#00d9ff" opacity="0.54"/><circle cx="160" cy="220" r="3" fill="#fff7cf" opacity="0.54"/><circle cx="257" cy="273" r="2" fill="#00d9ff" opacity="0.54"/></g>
  <path d="M88 710c74-92 132-104 212-34 74-90 132-120 220-18 42-42 82-44 136 12v96H88Z" fill="#06151c" opacity="0.88"/>
  <path d="M88 688c86-82 142-88 216-28 80-104 158-126 252-18 34-28 62-34 100-8" fill="none" stroke="#00d9ff" stroke-opacity="0.34" stroke-width="3"/>
  <path d="M88 764c132-62 252-72 360-30 74 28 142 28 208-10" fill="none" stroke="#d6efff" stroke-opacity="0.34" stroke-width="4"/>
  <path d="M118 768c128-38 240-34 336 12 66 30 124 28 172-4" fill="none" stroke="#f8e2a4" stroke-opacity="0.16" stroke-width="2"/>
  <circle cx="104" cy="300" r="60" fill="#d6efff" opacity="0.16"/><g><path d="M92 742V560h24v182Z" fill="#041018" opacity="0.76" stroke="#00d9ff" stroke-opacity="0.24"/><path d="M98 580h20M98 606h20" stroke="#d6efff" stroke-opacity="0.32"/><path d="M140 742V529h32v213Z" fill="#041018" opacity="0.76" stroke="#00d9ff" stroke-opacity="0.24"/><path d="M146 549h20M146 575h20" stroke="#d6efff" stroke-opacity="0.32"/><path d="M188 742V640h40v102Z" fill="#041018" opacity="0.76" stroke="#00d9ff" stroke-opacity="0.24"/><path d="M194 660h20M194 686h20" stroke="#d6efff" stroke-opacity="0.32"/><path d="M236 742V609h24v133Z" fill="#041018" opacity="0.76" stroke="#00d9ff" stroke-opacity="0.24"/><path d="M242 629h20M242 655h20" stroke="#d6efff" stroke-opacity="0.32"/><path d="M284 742V578h32v164Z" fill="#041018" opacity="0.76" stroke="#00d9ff" stroke-opacity="0.24"/><path d="M290 598h20M290 624h20" stroke="#d6efff" stroke-opacity="0.32"/><path d="M332 742V547h40v195Z" fill="#041018" opacity="0.76" stroke="#00d9ff" stroke-opacity="0.24"/><path d="M338 567h20M338 593h20" stroke="#d6efff" stroke-opacity="0.32"/><path d="M380 742V658h24v84Z" fill="#041018" opacity="0.76" stroke="#00d9ff" stroke-opacity="0.24"/><path d="M386 678h20M386 704h20" stroke="#d6efff" stroke-opacity="0.32"/><path d="M428 742V627h32v115Z" fill="#041018" opacity="0.76" stroke="#00d9ff" stroke-opacity="0.24"/><path d="M434 647h20M434 673h20" stroke="#d6efff" stroke-opacity="0.32"/><path d="M476 742V596h40v146Z" fill="#041018" opacity="0.76" stroke="#00d9ff" stroke-opacity="0.24"/><path d="M482 616h20M482 642h20" stroke="#d6efff" stroke-opacity="0.32"/><path d="M524 742V565h24v177Z" fill="#041018" opacity="0.76" stroke="#00d9ff" stroke-opacity="0.24"/><path d="M530 585h20M530 611h20" stroke="#d6efff" stroke-opacity="0.32"/><path d="M572 742V534h32v208Z" fill="#041018" opacity="0.76" stroke="#00d9ff" stroke-opacity="0.24"/><path d="M578 554h20M578 580h20" stroke="#d6efff" stroke-opacity="0.32"/><path d="M620 742V645h40v97Z" fill="#041018" opacity="0.76" stroke="#00d9ff" stroke-opacity="0.24"/><path d="M626 665h20M626 691h20" stroke="#d6efff" stroke-opacity="0.32"/><path d="M88 742h568" stroke="#d6efff" stroke-opacity="0.24" stroke-width="3"/></g><g filter="url(#soft-glow-card-58)"><g transform="translate(292 316) rotate(0) scale(0.5332)"><path d="M0-92V78" stroke="#d6efff" stroke-width="10" stroke-linecap="round"/><path d="M-42 8h84M-18 78h36M0-112l26 28H-26L0-112Z" fill="none" stroke="#00d9ff" stroke-width="8" stroke-linejoin="round"/></g><g transform="translate(452 316) rotate(0) scale(0.5332)"><path d="M0-92V78" stroke="#d6efff" stroke-width="10" stroke-linecap="round"/><path d="M-42 8h84M-18 78h36M0-112l26 28H-26L0-112Z" fill="none" stroke="#00d9ff" stroke-width="8" stroke-linejoin="round"/></g><g transform="translate(372 392) rotate(0) scale(0.5332)"><path d="M0-92V78" stroke="#d6efff" stroke-width="10" stroke-linecap="round"/><path d="M-42 8h84M-18 78h36M0-112l26 28H-26L0-112Z" fill="none" stroke="#00d9ff" stroke-width="8" stroke-linejoin="round"/></g><g transform="translate(292 482) rotate(0) scale(0.5332)"><path d="M0-92V78" stroke="#d6efff" stroke-width="10" stroke-linecap="round"/><path d="M-42 8h84M-18 78h36M0-112l26 28H-26L0-112Z" fill="none" stroke="#00d9ff" stroke-width="8" stroke-linejoin="round"/></g><g transform="translate(452 482) rotate(0) scale(0.5332)"><path d="M0-92V78" stroke="#d6efff" stroke-width="10" stroke-linecap="round"/><path d="M-42 8h84M-18 78h36M0-112l26 28H-26L0-112Z" fill="none" stroke="#00d9ff" stroke-width="8" stroke-linejoin="round"/></g><g transform="translate(372 560) rotate(180) scale(0.5332)"><path d="M0-92V78" stroke="#d6efff" stroke-width="10" stroke-linecap="round"/><path d="M-42 8h84M-18 78h36M0-112l26 28H-26L0-112Z" fill="none" stroke="#00d9ff" stroke-width="8" stroke-linejoin="round"/></g><g transform="translate(292 724) rotate(180) scale(0.5332)"><path d="M0-92V78" stroke="#d6efff" stroke-width="10" stroke-linecap="round"/><path d="M-42 8h84M-18 78h36M0-112l26 28H-26L0-112Z" fill="none" stroke="#00d9ff" stroke-width="8" stroke-linejoin="round"/></g><g transform="translate(452 724) rotate(180) scale(0.5332)"><path d="M0-92V78" stroke="#d6efff" stroke-width="10" stroke-linecap="round"/><path d="M-42 8h84M-18 78h36M0-112l26 28H-26L0-112Z" fill="none" stroke="#00d9ff" stroke-width="8" stroke-linejoin="round"/></g><g transform="translate(372 650) rotate(180) scale(0.5332)"><path d="M0-92V78" stroke="#d6efff" stroke-width="10" stroke-linecap="round"/><path d="M-42 8h84M-18 78h36M0-112l26 28H-26L0-112Z" fill="none" stroke="#00d9ff" stroke-width="8" stroke-linejoin="round"/></g></g>
  </g>
  <rect x="88" y="126" width="568" height="640" rx="28" fill="none" stroke="url(#gold-line)" stroke-width="4"/>
  <rect x="104" y="142" width="536" height="608" rx="20" fill="none" stroke="#d6efff" stroke-opacity="0.28" stroke-width="2"/>

  <g font-family="Georgia, Times New Roman, serif">
    <path d="M126 792h492l38 42-38 42H126l-38-42 38-42Z" fill="#070b10" fill-opacity="0.91" stroke="url(#gold-line)" stroke-width="3"/>
    <path d="M150 808h444M150 860h444" stroke="#d6efff" stroke-opacity="0.18" stroke-width="2"/>
    <text x="372" y="846" text-anchor="middle" font-size="38" font-weight="800" fill="#f8e2a4" letter-spacing="3">NINE OF SWORDS</text>
  </g>
  <g font-family="Inter, ui-sans-serif, system-ui, -apple-system, BlinkMacSystemFont, Segoe UI, sans-serif">
    <text x="372" y="912" text-anchor="middle" font-size="15" font-weight="900" fill="#d6efff" letter-spacing="4">MASTERY MIND</text>
    <text x="372" y="944" text-anchor="middle" font-size="12" font-weight="800" fill="#8fa4b3" letter-spacing="3">MIND ON NEO</text>
  </g>
  <text x="372" y="976" text-anchor="middle" font-family="Inter, ui-sans-serif, system-ui" font-size="11" font-weight="900" fill="#5a7485" letter-spacing="5">ORACLE VERIFIED READING</text>
</svg>
